<?xml version="1.0" encoding="UTF-8" standalone="no"?>
<!-- Created with Bouml (http://bouml.free.fr/) -->
<!DOCTYPE svg PUBLIC "-//W3C//DTD SVG 1.1//EN" "http://www.w3.org/Graphics/SVG/1.1/DTD/svg11.dtd">
<svg width="320" height="174" version="1.1" xmlns="http://www.w3.org/2000/svg">
<g>
	<line stroke="black" stroke-dasharray="18,6"  stroke-opacity="1" x1="47" y1="45" x2="47" y2="174" />
</g>
<g>
	<line stroke="black" stroke-dasharray="18,6"  stroke-opacity="1" x1="136" y1="45" x2="136" y2="174" />
</g>
<g>
	<line stroke="black" stroke-dasharray="18,6"  stroke-opacity="1" x1="246" y1="45" x2="246" y2="174" />
</g>
<g>
	<rect fill="#808080" stroke="none" stroke-opacity="1" x="158" y="8" width="3" height="24" />
	<rect fill="#808080" stroke="none" stroke-opacity="1" x="116" y="29" width="45" height="3" />
	<rect fill="#ffffc0" stroke="black" stroke-width="1" stroke-opacity="1" x="112" y="4" width="46" height="25" />
	<text font-family="Arial" font-size="11" fill="#000000" xml:space="preserve" text-decoration="underline" text-anchor="middle" x="135" y="22">:Store</text>
</g>
<g>
	<rect fill="#808080" stroke="none" stroke-opacity="1" x="86" y="8" width="3" height="24" />
	<rect fill="#808080" stroke="none" stroke-opacity="1" x="9" y="29" width="80" height="3" />
	<rect fill="#ffffc0" stroke="black" stroke-width="1" stroke-opacity="1" x="5" y="4" width="81" height="25" />
	<text font-family="Arial" font-size="11" fill="#000000" xml:space="preserve" text-decoration="underline" text-anchor="middle" x="46" y="22">:Application</text>
</g>
<g>
	<rect fill="#808080" stroke="none" stroke-opacity="1" x="304" y="8" width="3" height="24" />
	<rect fill="#808080" stroke="none" stroke-opacity="1" x="189" y="29" width="118" height="3" />
	<rect fill="#ffffc0" stroke="black" stroke-width="1" stroke-opacity="1" x="185" y="4" width="119" height="25" />
	<text font-family="Arial" font-size="11" fill="#000000" xml:space="preserve" text-decoration="underline" text-anchor="middle" x="245" y="22">:DatabaseHandle</text>
</g>
<g>
	<rect fill="#ffffff" stroke="black" stroke-width="1" stroke-opacity="1" x="42" y="71" width="10" height="91" />
</g>
<g>
	<rect fill="#ffffff" stroke="black" stroke-width="1" stroke-opacity="1" x="131" y="71" width="10" height="70" />
</g>
<g>
	<rect fill="#ffffff" stroke="black" stroke-width="1" stroke-opacity="1" x="241" y="121" width="10" height="37" />
</g>
<g>
	<line stroke="black" stroke-opacity="1" x1="53" y1="76" x2="131" y2="76" />
	<polygon fill="#000000" stroke="none" points="131,76 127,72 127,80" />
</g>
<g>
	<line stroke="black" stroke-opacity="1" stroke-dasharray="4,4" x1="53" y1="153" x2="241" y2="153" />
	<path fill="none" stroke="black" stroke-opacity="1" d="M 57 149 L 53 153 L 57 157" />
</g>
<g>
	<line stroke="black" stroke-opacity="1" x1="142" y1="126" x2="241" y2="126" />
	<polygon fill="#000000" stroke="none" points="241,126 237,122 237,130" />
</g>
<g>
	<rect fill="#ffffff" stroke="black" stroke-width="1" stroke-opacity="1" x="137" y="78" width="10" height="24" />
</g>
<g>
	<path fill="none" stroke="black" stroke-opacity="1" d="M 149 79 L 166 79 L 166 86 L 149 86" />
	<polygon fill="#000000" stroke="none" points="149,86 153,90 153,82" />
</g>
<g>
	<text font-family="Arial" font-size="11" fill="#000000" xml:space="preserve" x="56" y="64">select_all()</text>
</g>
<g>
	<text font-family="Arial" font-size="11" fill="#000000" xml:space="preserve" x="155" y="114">select_all()</text>
</g>
<g>
	<text font-family="Arial" font-size="11" fill="#000000" xml:space="preserve" x="148" y="70">select()</text>
</g>
</svg>
